<svg xmlns="http://www.w3.org/2000/svg" width="189.781" height="250.286" viewBox="0 0 189.781 250.286">
  <g id="banner-dots1" transform="translate(-1688.324 -757.859)">
    <circle id="Ellipse_313" data-name="Ellipse 313" cx="4.126" cy="4.126" r="4.126" transform="translate(1688.324 757.859)" fill="#9cc"/>
    <circle id="Ellipse_314" data-name="Ellipse 314" cx="4.126" cy="4.126" r="4.126" transform="translate(1748.834 757.859)" fill="#9cc"/>
    <circle id="Ellipse_315" data-name="Ellipse 315" cx="4.126" cy="4.126" r="4.126" transform="translate(1809.345 757.859)" fill="#9cc"/>
    <circle id="Ellipse_316" data-name="Ellipse 316" cx="4.126" cy="4.126" r="4.126" transform="translate(1869.854 757.859)" fill="#9cc"/>
    <circle id="Ellipse_317" data-name="Ellipse 317" cx="4.126" cy="4.126" r="4.126" transform="translate(1688.324 818.368)" fill="#9cc"/>
    <circle id="Ellipse_318" data-name="Ellipse 318" cx="4.126" cy="4.126" r="4.126" transform="translate(1748.834 818.368)" fill="#9cc"/>
    <circle id="Ellipse_319" data-name="Ellipse 319" cx="4.126" cy="4.126" r="4.126" transform="translate(1809.345 818.368)" fill="#9cc"/>
    <circle id="Ellipse_320" data-name="Ellipse 320" cx="4.126" cy="4.126" r="4.126" transform="translate(1869.854 818.368)" fill="#9cc"/>
    <circle id="Ellipse_321" data-name="Ellipse 321" cx="4.126" cy="4.126" r="4.126" transform="translate(1688.324 878.876)" fill="#9cc"/>
    <circle id="Ellipse_322" data-name="Ellipse 322" cx="4.126" cy="4.126" r="4.126" transform="translate(1748.834 878.876)" fill="#9cc"/>
    <circle id="Ellipse_323" data-name="Ellipse 323" cx="4.126" cy="4.126" r="4.126" transform="translate(1809.345 878.876)" fill="#9cc"/>
    <circle id="Ellipse_324" data-name="Ellipse 324" cx="4.126" cy="4.126" r="4.126" transform="translate(1869.854 878.876)" fill="#9cc"/>
    <circle id="Ellipse_325" data-name="Ellipse 325" cx="4.126" cy="4.126" r="4.126" transform="translate(1688.324 939.385)" fill="#9cc"/>
    <circle id="Ellipse_326" data-name="Ellipse 326" cx="4.126" cy="4.126" r="4.126" transform="translate(1748.834 939.385)" fill="#9cc"/>
    <circle id="Ellipse_327" data-name="Ellipse 327" cx="4.126" cy="4.126" r="4.126" transform="translate(1809.345 939.385)" fill="#9cc"/>
    <circle id="Ellipse_328" data-name="Ellipse 328" cx="4.126" cy="4.126" r="4.126" transform="translate(1869.854 939.385)" fill="#9cc"/>
    <circle id="Ellipse_329" data-name="Ellipse 329" cx="4.126" cy="4.126" r="4.126" transform="translate(1688.324 999.895)" fill="#9cc"/>
    <circle id="Ellipse_330" data-name="Ellipse 330" cx="4.126" cy="4.126" r="4.126" transform="translate(1748.834 999.895)" fill="#9cc"/>
    <circle id="Ellipse_331" data-name="Ellipse 331" cx="4.126" cy="4.126" r="4.126" transform="translate(1809.345 999.895)" fill="#9cc"/>
    <circle id="Ellipse_332" data-name="Ellipse 332" cx="4.126" cy="4.126" r="4.126" transform="translate(1869.854 999.895)" fill="#9cc"/>
  </g>
</svg>
